<svg xmlns="http://www.w3.org/2000/svg" xmlns:xlink="http://www.w3.org/1999/xlink" id="Capa_1" x="0" y="0" enable-background="new 0 0 600 600" version="1.1" viewBox="0 0 600 600" xml:space="preserve"><switch><g><path d="M528.556,514.946l-72.075-106.673c12.352-7.666,20.622-21.313,20.622-36.889c0-18.139-11.187-33.697-27.017-40.187 l10.21-105.066c20.797-3.216,36.788-21.188,36.788-42.872c0-23.949-19.485-43.431-43.433-43.431 c-12.738,0-24.176,5.545-32.128,14.309l-78.99-35.203c0.483-2.589,0.766-5.248,0.766-7.975c0-23.949-19.485-43.431-43.433-43.431 c-23.949,0-43.431,19.483-43.431,43.431c0,3.034,0.318,5.995,0.913,8.855l-72.049,34.398 c-7.849-11.31-20.909-18.742-35.687-18.742c-23.949,0-43.433,19.483-43.433,43.431c0,22.302,16.903,40.714,38.567,43.144 l8.257,111.54c-16.955,5.92-29.171,22.029-29.171,40.977c0,14.639,7.301,27.584,18.432,35.457l-70.67,104.608 c-0.847,1.124-4.939,7.02-2.338,12.361c1.131,2.326,3.819,5.125,10.29,5.257l46.669,0.119c2.887,0,6.4-1.735,7.739-5.617 c0.669-1.94,20.433-79.836,27.859-109.13c1.79,0.225,3.601,0.38,5.452,0.38c12.574,0,23.882-5.405,31.821-13.973l-0.561,0.997 l58.316,32.821c-0.207,1.712-0.329,3.444-0.329,5.193c0,8.999,2.831,17.781,7.997,25.083l-2.288,11.498h-1.82 c-4.793,0-8.694,3.899-8.694,8.694v34.109c0,4.795,3.9,8.694,8.694,8.694h77.809c4.793,0,8.694-3.899,8.694-8.694v-34.109 c0-4.795-3.9-8.694-8.694-8.694h-1.947l-1.888-10.08c5.69-7.519,8.835-16.722,8.835-26.193c0-1.522-0.104-3.024-0.257-4.515 l61.842-35.094c7.684,6.865,17.785,11.079,28.876,11.079c1.259,0,2.497-0.083,3.729-0.189 c6.697,26.42,27.951,110.217,28.645,112.236c1.34,3.875,4.853,5.61,7.753,5.61l46.749-0.119c6.378-0.132,9.066-2.931,10.196-5.257 C533.345,521.755,529.253,515.86,528.556,514.946z M433.671,327.952c-11.286,0-21.547,4.363-29.278,11.445l-66.616-40.269 c3.505-6.262,5.523-13.463,5.523-21.134c0-7.236-1.803-14.049-4.946-20.055l84.288-44.325c7.04,7.191,16.543,11.942,27.136,12.884 l-9.907,101.95C437.84,328.155,435.781,327.952,433.671,327.952z M294.883,410.282v13.577h-10.927l2.702-13.577H294.883z M303.577,410.282h9.086l2.543,13.577h-11.629V410.282z M294.65,399.849h-5.916l5.916-29.724V399.849z M281.879,434.291h13.004 v13.761H279.14L281.879,434.291z M303.577,434.291h13.582l2.577,13.761h-16.159V434.291z M305.083,399.849v-30.048l5.627,30.048 H305.083z M299.867,310.996c-18.196,0-32.999-14.803-32.999-33.002c0-18.196,14.803-32.999,32.999-32.999 c18.197,0,33.001,14.803,33.001,32.999C332.867,296.193,318.064,310.996,299.867,310.996z M453.651,150.26 c18.197,0,33.001,14.803,33.001,32.999c0,18.199-14.803,33.002-33.001,33.002s-33.001-14.803-33.001-33.002 C420.65,165.063,435.453,150.26,453.651,150.26z M415.354,162.81c-3.27,6.099-5.136,13.058-5.136,20.449 c0,8.009,2.217,15.493,6.013,21.941l-83.851,44.095c-6.859-7.761-16.423-13.056-27.219-14.377v-80.885 c15.24-1.864,28.041-11.64,34.194-25.095L415.354,162.81z M299.867,77.96c18.197,0,33.001,14.803,33.001,32.999 s-14.803,32.999-33.001,32.999c-18.196,0-32.999-14.803-32.999-32.999S281.671,77.96,299.867,77.96z M260.767,129.742 c6.312,13.083,18.959,22.536,33.961,24.315v80.837c-11.004,1.305-20.741,6.737-27.651,14.704l-80.908-47.34 c4.33-6.753,6.874-14.756,6.874-23.357c0-5.446-1.051-10.64-2.89-15.448L260.767,129.742z M116.612,178.902 c0-18.196,14.803-32.999,33.001-32.999c18.196,0,32.999,14.803,32.999,32.999c0,18.199-14.803,33.002-32.999,33.002 C131.415,211.904,116.612,197.101,116.612,178.902z M155.2,221.936c9.326-1.206,17.72-5.37,24.227-11.534l81.797,47.861 c-3.04,5.929-4.789,12.624-4.789,19.732c0,8.361,2.416,16.151,6.526,22.785l-72.347,37.221c-6.752-4.327-14.752-6.87-23.35-6.87 c-1.339,0-2.658,0.082-3.966,0.201L155.2,221.936z M125.456,453.53l8.199-12.134h11.363c-1.002,3.947-2.035,8.013-3.082,12.134 H125.456z M139.284,463.962c-1.123,4.419-2.241,8.815-3.335,13.112h-26.402l8.86-13.112H139.284z M124.475,521.928l-44.81-0.115 c-0.1,0-0.195-0.003-0.285-0.007c0.202-0.377,0.447-0.771,0.705-1.128l22.414-33.172h30.796 C129.085,504.026,125.63,517.542,124.475,521.928z M147.665,430.963h-6.962l10.793-15.974c0.067,0.026,0.135,0.048,0.202,0.075 C150.535,419.65,149.167,425.047,147.665,430.963z M167.265,407.565c-18.197,0-33.001-14.803-33.001-33.002 c0-18.196,14.803-32.999,33.001-32.999s33.001,14.803,33.001,32.999C200.265,392.762,185.462,407.565,167.265,407.565z M204.68,396.511c3.799-6.451,6.018-13.937,6.018-21.948c0-11.284-4.362-21.544-11.443-29.274l70.355-36.197 c6.455,6.282,14.849,10.548,24.19,11.863l-16.983,85.327c-7.992,5.039-14.01,12.475-17.344,21.067L204.68,396.511z M266.944,443.036c0-7.134,2.353-13.913,6.435-19.485l-5.452,27.391C267.292,448.369,266.944,445.717,266.944,443.036z M277.064,458.484h17.819v21.133h-22.025L277.064,458.484z M336.47,520.682h-74.332V490.05h74.332V520.682z M303.577,479.618 v-21.133h18.112l3.957,21.133H303.577z M325.632,422.848c4.542,5.722,7.146,12.878,7.146,20.497c0,3.311-0.529,6.574-1.491,9.699 L325.632,422.848z M322.545,406.364l-16.01-85.502c9.825-1.524,18.556-6.333,25.049-13.292l65.904,39.839 c-4.572,6.876-7.25,15.116-7.25,23.974c0,9.023,2.771,17.409,7.499,24.361l-57.231,32.478 C337.183,419.235,330.934,411.519,322.545,406.364z M400.67,371.384c0-18.196,14.803-32.999,33.001-32.999 s33.001,14.803,33.001,32.999c0,18.196-14.803,32.999-33.001,32.999S400.67,389.58,400.67,371.384z M474.547,453.638h-16.484 c-1.047-4.121-2.08-8.188-3.082-12.134h11.367L474.547,453.638z M460.714,464.071h20.883l8.86,13.112h-26.408 C462.956,472.885,461.837,468.489,460.714,464.071z M459.298,431.072h-6.965c-1.566-6.17-2.991-11.792-4.185-16.501 L459.298,431.072z M520.426,521.922l-44.897,0.115c-1.196-4.54-4.642-18.009-8.824-34.422h30.801l22.558,33.383 c0.165,0.221,0.372,0.56,0.562,0.917C520.562,521.918,520.496,521.922,520.426,521.922z"/></g></switch></svg>