<svg xmlns="http://www.w3.org/2000/svg" xmlns:xlink="http://www.w3.org/1999/xlink" id="Capa_1" x="0" y="0" version="1.1" viewBox="0 0 42 42" xml:space="preserve" style="enable-background:new 0 0 42 42"><g><circle style="fill:#fbd971" cx="21" cy="21" r="21"/><circle style="fill:#fff" cx="12" cy="17" r="6"/><circle style="fill:#fff" cx="30" cy="17" r="6"/><circle style="fill:#c03a2b" cx="21" cy="31" r="5"/><path style="fill:#f0c419" d="M18.381,12c-0.239,0-0.479-0.085-0.671-0.258l-6.381-5.77C10.92,5.602,10.888,4.97,11.258,4.56 c0.373-0.409,1.004-0.44,1.413-0.071l6.381,5.77c0.409,0.371,0.441,1.003,0.071,1.413C18.925,11.889,18.653,12,18.381,12z"/><path style="fill:#f0c419" d="M23.619,12c-0.272,0-0.544-0.111-0.742-0.329c-0.37-0.41-0.338-1.042,0.071-1.413l6.381-5.77 c0.41-0.369,1.041-0.338,1.413,0.071c0.37,0.41,0.338,1.042-0.071,1.413l-6.381,5.77C24.099,11.915,23.858,12,23.619,12z"/><circle style="fill:#af8066" cx="12" cy="17" r="3"/><circle style="fill:#af8066" cx="30" cy="17" r="3"/></g></svg>