<svg xmlns="http://www.w3.org/2000/svg" xmlns:xlink="http://www.w3.org/1999/xlink" id="Capa_1" x="0" y="0" version="1.1" viewBox="0 0 42 42" xml:space="preserve" style="enable-background:new 0 0 42 42"><g><circle style="fill:#fbd971" cx="21" cy="21" r="21"/><circle style="fill:#af8066" cx="13" cy="13.5" r="3.5"/><circle style="fill:#af8066" cx="29" cy="13.5" r="3.5"/><path style="fill:#f0c419" d="M16.382,32.888c-2.421,0-4.984-1.077-7.089-3.181c-0.391-0.391-0.391-1.023,0-1.414 s1.023-0.391,1.414,0c1.43,1.43,3.177,2.339,4.919,2.56c1.261,0.163,3.089,0.019,4.667-1.56c3.51-3.511,9.904-3.511,13.414,0 c0.391,0.391,0.391,1.023,0,1.414s-1.023,0.391-1.414,0c-2.721-2.721-7.865-2.721-10.586,0 C20.244,32.17,18.36,32.888,16.382,32.888z"/></g></svg>