<svg xmlns="http://www.w3.org/2000/svg" xmlns:xlink="http://www.w3.org/1999/xlink" id="Capa_1" x="0" y="0" version="1.1" viewBox="0 0 42 42" xml:space="preserve" style="enable-background:new 0 0 42 42"><g><circle style="fill:#fbd971" cx="21" cy="21" r="21"/><path style="fill:#fff" d="M31.5,29H29H9v5h20h2.5c1.381,0,2.5-1.119,2.5-2.5C34,30.119,32.881,29,31.5,29z"/><circle style="fill:#fff" cx="12" cy="14" r="6"/><circle style="fill:#fff" cx="30" cy="14" r="6"/><g><line style="fill:#ecf0f1" x1="29" x2="29" y1="34" y2="29"/><rect style="fill:#ecf0f1" width="2" height="5" x="28" y="29"/></g><g><line style="fill:#ecf0f1" x1="14" x2="14" y1="29" y2="34"/><rect style="fill:#ecf0f1" width="2" height="5" x="13" y="29"/></g><g><line style="fill:#ecf0f1" x1="24" x2="24" y1="29" y2="34"/><rect style="fill:#ecf0f1" width="2" height="5" x="23" y="29"/></g><g><line style="fill:#ecf0f1" x1="19" x2="19" y1="29" y2="34"/><rect style="fill:#ecf0f1" width="2" height="5" x="18" y="29"/></g><circle style="fill:#af8066" cx="12" cy="14" r="3"/><circle style="fill:#af8066" cx="30" cy="14" r="3"/></g></svg>