<svg xmlns="http://www.w3.org/2000/svg" xmlns:xlink="http://www.w3.org/1999/xlink" id="Capa_1" x="0" y="0" version="1.1" viewBox="0 0 42 42" xml:space="preserve" style="enable-background:new 0 0 42 42"><g><circle style="fill:#fbd971" cx="21" cy="21" r="21"/><path style="fill:#f29c1f" d="M8,19.485c-0.256,0-0.512-0.098-0.707-0.293c-0.391-0.391-0.391-1.023,0-1.414l8.485-8.485 c0.391-0.391,1.023-0.391,1.414,0s0.391,1.023,0,1.414l-8.485,8.485C8.512,19.388,8.256,19.485,8,19.485z"/><path style="fill:#f29c1f" d="M16.485,19.485c-0.256,0-0.512-0.098-0.707-0.293l-8.485-8.485c-0.391-0.391-0.391-1.023,0-1.414 s1.023-0.391,1.414,0l8.485,8.485c0.391,0.391,0.391,1.023,0,1.414C16.997,19.388,16.741,19.485,16.485,19.485z"/><path style="fill:#f29c1f" d="M25.515,19.485c-0.256,0-0.512-0.098-0.707-0.293c-0.391-0.391-0.391-1.023,0-1.414l8.485-8.485 c0.391-0.391,1.023-0.391,1.414,0s0.391,1.023,0,1.414l-8.485,8.485C26.026,19.388,25.771,19.485,25.515,19.485z"/><path style="fill:#f29c1f" d="M34,19.485c-0.256,0-0.512-0.098-0.707-0.293l-8.485-8.485c-0.391-0.391-0.391-1.023,0-1.414 s1.023-0.391,1.414,0l8.485,8.485c0.391,0.391,0.391,1.023,0,1.414C34.512,19.388,34.256,19.485,34,19.485z"/><g><path style="fill:#fb7b76" d="M21,26v7.801c0,2.2,1.8,4,4,4h1c2.2,0,4-1.8,4-4L30,26C28.292,26.021,22.812,26,21,26z"/></g><path style="fill:#e64c3c" d="M25.533,32.611c-0.553,0-1-0.447-1-1v-0.165c0.001-2.562-0.071-4.145-0.215-4.715 C24.123,26.55,24,26.289,24,26c0-0.553,0.447-1,1-1c1.291,0,1.388,1.671,1.466,3.013c0.068,1.173,0.067,2.534,0.067,3.435v0.164 C26.533,32.164,26.086,32.611,25.533,32.611z"/><path style="fill:#f0c419" d="M31,27H9c-0.553,0-1-0.447-1-1s0.447-1,1-1h22c0.553,0,1,0.447,1,1S31.553,27,31,27z"/></g></svg>