<svg xmlns="http://www.w3.org/2000/svg" xmlns:xlink="http://www.w3.org/1999/xlink" id="Capa_1" x="0" y="0" version="1.1" viewBox="0 0 42 42" xml:space="preserve" style="enable-background:new 0 0 42 42"><g><circle style="fill:#fbd971" cx="21" cy="21" r="21"/><path style="fill:#f29c1f" d="M16,17c-0.552,0-1-0.448-1-1c0-1.654-1.346-3-3-3s-3,1.346-3,3c0,0.552-0.448,1-1,1s-1-0.448-1-1 c0-2.757,2.243-5,5-5s5,2.243,5,5C17,16.552,16.552,17,16,17z"/><path style="fill:#f29c1f" d="M34,17c-0.552,0-1-0.448-1-1c0-1.654-1.346-3-3-3s-3,1.346-3,3c0,0.552-0.448,1-1,1s-1-0.448-1-1 c0-2.757,2.243-5,5-5s5,2.243,5,5C35,16.552,34.552,17,34,17z"/><path style="fill:#c03a2b" d="M32,25c0,6.075-4.925,11-11,11s-11-4.925-11-11H32z"/><rect style="fill:#ecf0f1" width="4" height="6" x="17" y="25"/><rect style="fill:#ecf0f1" width="4" height="4" x="21" y="25"/></g></svg>