<svg xmlns="http://www.w3.org/2000/svg" xmlns:xlink="http://www.w3.org/1999/xlink" id="Capa_1" x="0" y="0" version="1.1" viewBox="0 0 42 42" xml:space="preserve" style="enable-background:new 0 0 42 42"><g><circle style="fill:#fbd971" cx="21" cy="21" r="21"/><path style="fill:#802d40" d="M32,24c0,6.075-4.925,11-11,11s-11-4.925-11-11H32z"/><rect style="fill:#ecf0f1" width="4" height="6" x="17" y="24"/><rect style="fill:#ecf0f1" width="4" height="4" x="21" y="24"/><path style="fill:#e64c3c" d="M12.545,10.702C12.983,9.7,13.982,9,15.146,9c1.567,0,2.695,1.294,2.837,2.837 c0,0,0.077,0.383-0.092,1.072c-0.229,0.939-0.769,1.773-1.496,2.409l-3.85,3.317L8.76,15.319c-0.727-0.636-1.267-1.471-1.496-2.409 c-0.169-0.689-0.092-1.072-0.092-1.072C7.314,10.294,8.442,9,10.009,9C11.172,9,12.107,9.7,12.545,10.702z"/><path style="fill:#e64c3c" d="M29.39,10.702C29.828,9.7,30.828,9,31.991,9c1.567,0,2.695,1.294,2.837,2.837 c0,0,0.077,0.383-0.092,1.072c-0.229,0.939-0.769,1.773-1.496,2.409l-3.85,3.317l-3.785-3.317 c-0.727-0.636-1.267-1.471-1.496-2.409c-0.169-0.689-0.092-1.072-0.092-1.072C24.159,10.294,25.288,9,26.854,9 C28.018,9,28.952,9.7,29.39,10.702z"/></g></svg>