<svg xmlns="http://www.w3.org/2000/svg" xmlns:xlink="http://www.w3.org/1999/xlink" id="Capa_1" x="0" y="0" version="1.1" viewBox="0 0 42 42" xml:space="preserve" style="enable-background:new 0 0 42 42"><g><circle style="fill:#fbd971" cx="21" cy="21" r="21"/><path style="fill:#f29c1f" d="M16,16H8c-0.553,0-1-0.447-1-1s0.447-1,1-1h8c0.553,0,1,0.447,1,1S16.553,16,16,16z"/><path style="fill:#f29c1f" d="M34,16h-8c-0.553,0-1-0.447-1-1s0.447-1,1-1h8c0.553,0,1,0.447,1,1S34.553,16,34,16z"/><path style="fill:#f0c419" d="M30,32H12c-0.553,0-1-0.447-1-1s0.447-1,1-1h18c0.553,0,1,0.447,1,1S30.553,32,30,32z"/><path style="fill:#f0c419" d="M30,32H12c-0.553,0-1-0.447-1-1s0.447-1,1-1h18c0.553,0,1,0.447,1,1S30.553,32,30,32z"/></g></svg>