<svg xmlns="http://www.w3.org/2000/svg" xmlns:xlink="http://www.w3.org/1999/xlink" id="Capa_1" x="0" y="0" version="1.1" viewBox="0 0 42 42" xml:space="preserve" style="enable-background:new 0 0 42 42"><g><circle style="fill:#fbd971" cx="21" cy="21" r="21"/><circle style="fill:#fff" cx="12" cy="15" r="6"/><circle style="fill:#fff" cx="30" cy="15" r="6"/><path style="fill:#f0c419" d="M18.387,34.993c-1.981,0-3.953-0.38-5.771-1.138c-0.51-0.212-0.751-0.798-0.538-1.308 c0.212-0.509,0.795-0.751,1.308-0.538c3.052,1.271,6.606,1.313,9.753,0.116c3.217-1.224,5.682-3.561,6.939-6.578 c0.211-0.509,0.796-0.753,1.308-0.538c0.51,0.212,0.75,0.798,0.538,1.308c-1.47,3.529-4.338,6.257-8.073,7.678 C22.1,34.661,20.239,34.993,18.387,34.993z"/><circle style="fill:#af8066" cx="12" cy="15" r="3"/><circle style="fill:#af8066" cx="30" cy="15" r="3"/></g></svg>