<svg xmlns="http://www.w3.org/2000/svg" xmlns:xlink="http://www.w3.org/1999/xlink" id="Capa_1" x="0" y="0" version="1.1" viewBox="0 0 42 42" xml:space="preserve" style="enable-background:new 0 0 42 42"><g><circle style="fill:#fbd971" cx="21" cy="21" r="21"/><circle style="fill:#af8066" cx="29.5" cy="14.5" r="3.5"/><path style="fill:#f0c419" d="M21,36c-6.617,0-12-5.383-12-12c0-0.552,0.447-1,1-1s1,0.448,1,1c0,5.514,4.486,10,10,10 s10-4.486,10-10c0-0.552,0.447-1,1-1s1,0.448,1,1C33,30.617,27.617,36,21,36z"/><path style="fill:#f29c1f" d="M15,15H8c-0.553,0-1-0.448-1-1s0.447-1,1-1h7c0.553,0,1,0.448,1,1S15.553,15,15,15z"/></g></svg>